PathFileType	4	(X/Y/Z)	C:\Users\Basilio\Documents\Thesis Gigler\squatting_fais\c3dfiles\076\SLS_back_pre2\markers_experimental.trc
DataRate	CameraRate	NumFrames	NumMarkers	Units	OrigDataRate	OrigDataStartFrame	OrigNumFrames
200.000000	200.000000	4	61	mm	200.000000	1460	1947
Frame#	Time	FHD			LBHD			RBHD			C7			T10			CLAV			LSHO			LUUPA			LMUPA			LDUPA			LLEP			LMEP			LRAD			LUL			LRFIN			RSHO			RUPA1			RMUPA			RDUPA			RLEP			RMEP			RRAD			RUL			RUFIN			RASI			USACR			LSACR			RSACR			LTHI1			LTHI2			LTHI3			LTHI4			LLFC			LMFC			LTIB1			LTIB2			LTIB3			LTIB4			LLMAL			LMMAL			LHEE			LMT1			LMT2			LMT5			RTHI			RTHI2			RTHI3			RTHI4			RLFC			RMFC			RTIB1			RTIB2			RTIB3			RTIB4			RLMAL			RMMAL			RHEE			RMT1			RMT2			RMT5			LASI			
		X1	Y1	Z1	X2	Y2	Z2	X3	Y3	Z3	X4	Y4	Z4	X5	Y5	Z5	X6	Y6	Z6	X7	Y7	Z7	X8	Y8	Z8	X9	Y9	Z9	X10	Y10	Z10	X11	Y11	Z11	X12	Y12	Z12	X13	Y13	Z13	X14	Y14	Z14	X15	Y15	Z15	X16	Y16	Z16	X17	Y17	Z17	X18	Y18	Z18	X19	Y19	Z19	X20	Y20	Z20	X21	Y21	Z21	X22	Y22	Z22	X23	Y23	Z23	X24	Y24	Z24	X25	Y25	Z25	X26	Y26	Z26	X27	Y27	Z27	X28	Y28	Z28	X29	Y29	Z29	X30	Y30	Z30	X31	Y31	Z31	X32	Y32	Z32	X33	Y33	Z33	X34	Y34	Z34	X35	Y35	Z35	X36	Y36	Z36	X37	Y37	Z37	X38	Y38	Z38	X39	Y39	Z39	X40	Y40	Z40	X41	Y41	Z41	X42	Y42	Z42	X43	Y43	Z43	X44	Y44	Z44	X45	Y45	Z45	X46	Y46	Z46	X47	Y47	Z47	X48	Y48	Z48	X49	Y49	Z49	X50	Y50	Z50	X51	Y51	Z51	X52	Y52	Z52	X53	Y53	Z53	X54	Y54	Z54	X55	Y55	Z55	X56	Y56	Z56	X57	Y57	Z57	X58	Y58	Z58	X59	Y59	Z59	X60	Y60	Z60	X61	Y61	Z61	

1461	7.3	-136.9539184570313	1576.088256835938	-1021.829528808594	-269.4977111816407	1494.634033203125	-1118.877563476563	-254.0576477050782	1495.90966796875	-967.6131591796877	-304.4378051757813	1388.6669921875	-1040.177734375	-385.2309875488282	1084.63916015625	-1026.189086914063	-183.9157104492188	1293.754028320313	-1047.266357421875	-260.1641235351563	1318.774658203125	-1221.933837890625	-312.9856262207032	1119.058837890625	-1272.741821289063	-285.3560791015626	1086.58154296875	-1247.907958984375	-328.2118835449219	1052.184448242188	-1275.723754882813	-356.4822387695313	1003.649475097656	-1271.614990234375	-383.8488769531251	1001.026916503906	-1194.0263671875	-332.7226867675782	757.9978027343751	-1245.942749023438	-374.6422729492188	764.8142089843751	-1296.692993164063	-344.0741577148438	669.7257080078126	-1256.744995117188	-234.1425018310547	1311.770263671875	-871.414733886719	-303.7896118164063	1124.118774414063	-795.297058105469	-266.7301940917969	1092.097900390625	-799.648620605469	-314.6452331542969	1054.709594726563	-793.784606933594	-317.3156433105469	994.4836425781252	-795.4139404296877	-324.7719726562501	982.2517700195315	-875.9468383789065	-309.4715881347657	750.2488403320314	-786.4284667968752	-362.5795288085938	770.9468994140627	-751.4298095703126	-326.7360839843751	676.2924804687501	-752.0147094726564	-259.3779296875001	875.975769042969	-917.519470214844	-412.3321533203126	980.862731933594	-1015.371765136719	-429.1419982910157	955.644714355469	-1043.314331054688	-425.0727844238282	953.4458618164065	-986.2370605468752	-332.2505798339844	733.8995361328126	-1195.64599609375	-283.1536254882813	665.4545898437501	-1190.788696289063	-235.2744598388672	680.4841918945314	-1182.025146484375	-294.6457824707032	608.1603393554689	-1174.631958007813	-244.3652801513672	459.1034545898439	-1143.110961914063	-214.8963928222657	469.481903076172	-1030.056274414063	-240.1905212402344	323.4957580566407	-1049.327758789063	-276.9876708984376	265.8226318359376	-1106.050659179688	-248.5929412841797	268.8775329589844	-1067.423217773438	-288.8577880859376	209.5362548828126	-1023.042663574219	-382.0594787597657	106.3085403442383	-1057.65478515625	-350.1982421875001	121.698226928711	-979.2124023437502	-441.8734436035157	97.05883789062503	-1007.472473144531	-240.7845306396485	51.9924659729004	-993.0296020507815	-235.2144012451172	48.63276672363283	-1031.902709960938	-259.9104614257813	43.66637039184571	-1081.634887695313	-330.8815307617188	640.7050170898439	-831.5766601562502	-288.9645996093751	586.6097412109376	-829.8087158203127	-256.1295166015626	588.9941406250001	-839.503601074219	-315.1301269531251	507.5229492187501	-838.5229492187502	-319.4158020019532	462.6513671875001	-843.9605712890627	-307.1540832519532	446.0721740722657	-957.6049804687502	-415.2523803710939	375.0288085937501	-873.0850830078127	-512.2266235351564	422.8897399902345	-859.4069824218752	-502.3990783691407	377.6850585937501	-868.6213378906252	-539.4346923828126	354.1555480957032	-908.365905761719	-689.3259277343751	377.3935852050782	-892.247009277344	-660.3986206054689	363.2814025878907	-972.2480468750002	-714.7670288085939	433.6949157714845	-937.2575683593752	-702.8074951171876	232.8830566406251	-978.4630126953127	-705.8839111328126	221.1597900390626	-933.7137451171877	-737.0552978515626	242.0386047363282	-883.488220214844	-268.0295410156251	880.3877563476565	-1131.49755859375	
1462	7.305	-137.6988220214844	1577.434814453125	-1021.667907714844	-270.5224304199219	1495.709106445313	-1118.6103515625	-254.8505249023438	1497.15283203125	-967.4746704101565	-305.1875610351563	1389.709106445313	-1040.266967773438	-385.0652160644532	1085.508056640625	-1026.416015625	-184.3450164794922	1295.066284179688	-1047.17626953125	-260.5096740722657	1319.890991210938	-1221.99267578125	-314.1691284179688	1120.413330078125	-1273.092895507813	-285.9782104492188	1087.671142578125	-1248.098510742188	-329.1822814941407	1053.398559570313	-1275.897338867188	-357.4487915039063	1005.020935058594	-1271.81787109375	-384.800506591797	1003.087341308594	-1194.102661132813	-333.9164428710938	759.2611083984376	-1246.078735351563	-375.8817749023438	766.0750122070314	-1296.767333984375	-345.7663879394532	671.0871582031251	-1256.792724609375	-234.9795684814454	1313.136596679688	-871.398620605469	-304.8038635253907	1125.437744140625	-795.5458984375002	-267.7303771972657	1093.319458007813	-799.4725341796877	-315.7295532226563	1055.880249023438	-793.8870239257815	-318.0056457519532	995.7061157226565	-795.302673339844	-324.7552185058594	983.5206298828127	-875.9309082031252	-309.9201965332032	751.4869384765626	-785.660583496094	-363.5036926269532	772.3508300781252	-751.3715820312501	-327.6651000976563	677.3864746093751	-750.9175415039064	-258.8667297363282	877.2159423828127	-917.6186523437502	-411.090057373047	981.9563598632815	-1015.956481933594	-428.9671936035157	956.324157714844	-1043.345825195313	-424.5516662597657	954.355163574219	-986.4219360351565	-330.8523559570313	734.4255371093751	-1195.833374023438	-283.2146911621094	666.1445312500001	-1191.096923828125	-235.1231842041016	680.7803344726564	-1182.122802734375	-294.9173583984376	608.6499023437501	-1174.563842773438	-244.7927856445313	459.4026489257814	-1143.11572265625	-215.4204864501954	469.814178466797	-1030.172119140625	-240.565414428711	323.7861328125001	-1049.496337890625	-277.2272338867188	266.1172790527344	-1106.144409179688	-248.9499664306641	269.1255798339844	-1067.604614257813	-288.9993286132813	209.7835998535157	-1023.14013671875	-381.9813232421876	106.1451797485352	-1057.631591796875	-350.2188415527344	121.7008209228516	-979.2974853515627	-441.8725585937501	97.15436553955081	-1007.478759765625	-240.7904510498047	52.04809951782228	-993.0319824218752	-235.1919860839844	48.5943946838379	-1031.921264648438	-259.9227600097657	43.62473297119141	-1081.653198242188	-329.8083801269532	641.8269042968751	-831.5209960937502	-287.7366943359376	587.8806152343751	-829.7596435546877	-254.7594757080079	590.1993408203126	-839.459899902344	-313.6558837890626	508.6325683593751	-838.3662109375002	-317.9721984863282	463.698455810547	-843.7165527343752	-305.3901672363282	447.384979248047	-956.831970214844	-413.5892639160157	375.8838500976563	-872.9119873046877	-510.6287231445314	423.5937500000001	-859.354187011719	-500.7104797363282	378.2013549804688	-868.3674926757815	-537.5099487304689	354.8520202636719	-908.2275390625002	-687.5620727539064	377.4413757324219	-892.2839355468752	-658.5841674804689	363.3890380859376	-972.2355957031252	-713.0910034179689	433.7318115234376	-937.279479980469	-700.5486450195314	232.8751373291016	-978.2500610351565	-703.5126342773439	221.3694610595704	-933.653259277344	-734.7578125000001	241.9202728271485	-883.3618774414065	-267.6958618164063	881.5798339843752	-1131.544311523438	
1463	7.31	-138.6033172607422	1578.7080078125	-1021.691467285156	-271.1346740722657	1496.976196289063	-1118.657348632813	-255.709945678711	1498.467163085938	-967.5919189453127	-305.9526367187501	1390.824584960938	-1040.462158203125	-384.959197998047	1086.297119140625	-1026.595947265625	-184.8710174560547	1296.375732421875	-1047.180297851563	-261.7096862792969	1321.2626953125	-1222.525024414063	-314.6885070800782	1121.666137695313	-1273.245849609375	-286.8999023437501	1088.86865234375	-1248.377807617188	-330.3004455566407	1054.684814453125	-1276.229370117188	-358.2917175292969	1006.186218261719	-1272.091918945313	-385.8809814453126	1004.338684082031	-1194.466552734375	-335.0502624511719	760.4925537109376	-1246.000854492188	-377.0332336425782	767.4598999023439	-1297.015991210938	-346.9118347167969	672.5734252929689	-1257.030517578125	-235.9604187011719	1314.314208984375	-871.322204589844	-305.8236083984376	1126.605834960938	-795.6562500000002	-268.5886230468751	1094.648803710938	-799.3174438476565	-316.6283874511719	1057.182861328125	-794.0778808593752	-318.8728027343751	996.863708496094	-795.2544555664065	-325.0831909179688	984.4008789062502	-875.8105468750002	-310.2560729980469	752.7056884765626	-784.9052734375002	-364.2421569824219	773.3989257812502	-751.3093261718751	-328.2613220214844	678.7597045898439	-750.2317504882814	-258.0274047851563	878.1285400390627	-917.5164794921877	-411.3216857910157	982.6903076171877	-1015.859924316406	-428.4075012207032	956.9471435546877	-1043.577758789063	-424.1599121093751	955.1810302734377	-986.615905761719	-330.6739196777344	735.2042846679689	-1195.855224609375	-283.2107849121094	666.5618896484376	-1190.989379882813	-235.0172119140626	681.1176147460939	-1182.278930664063	-295.3099060058594	609.3628540039064	-1174.46875	-245.6016998291016	459.7749633789064	-1143.173461914063	-215.8356323242188	470.120819091797	-1030.20947265625	-240.9751281738282	324.1484069824219	-1049.601684570313	-277.7076110839844	266.3781127929688	-1106.196655273438	-249.4141235351563	269.4997863769532	-1067.867309570313	-289.2026062011719	209.9829559326172	-1023.29248046875	-382.0053100585938	106.1005172729492	-1057.679321289063	-350.2128601074219	121.7468032836914	-979.372741699219	-441.8794555664064	97.15115356445315	-1007.535705566406	-240.7939147949219	52.08462142944337	-993.0679321289065	-235.2197723388672	48.60306930541994	-1031.93212890625	-259.4104614257813	43.36674499511719	-1081.485961914063	-328.5151367187501	643.0250854492189	-831.370056152344	-286.3112487792969	589.0333251953126	-829.5461425781252	-253.4803009033204	591.4357910156251	-839.2921142578127	-312.2261352539063	509.7651367187501	-838.1358032226565	-316.3583679199219	464.8981933593751	-843.5283203125002	-303.8179626464844	448.4054260253907	-956.6028442382815	-411.8894042968751	376.5351867675782	-872.6754150390627	-508.9454040527345	424.2116699218751	-859.2862548828127	-498.7687988281251	378.6089172363282	-868.302429199219	-535.6839599609376	355.2594604492188	-908.152526855469	-685.7035522460939	377.5439453125001	-892.2666625976565	-656.6860351562501	363.5294799804688	-972.1667480468752	-711.5301513671876	433.613006591797	-937.3673095703127	-698.1269531250001	232.9315338134766	-978.200134277344	-701.3926391601564	221.4182891845704	-933.6016845703127	-732.6627197265626	241.7040252685547	-883.5276489257815	-267.0722351074219	882.4985351562502	-1131.5146484375	
1464	7.315	-139.5522613525391	1580.01611328125	-1021.635009765625	-271.7109375000001	1497.97802734375	-1118.8369140625	-256.4416809082032	1499.626831054688	-967.518249511719	-306.6442260742188	1391.857788085938	-1040.455688476563	-384.9259033203126	1086.95556640625	-1026.755493164063	-185.4422912597657	1297.6552734375	-1047.160888671875	-262.1347961425782	1322.356811523438	-1222.595458984375	-315.3569946289063	1122.960693359375	-1273.570922851563	-288.0140380859376	1090.142211914063	-1248.8837890625	-330.9632568359376	1056.022338867188	-1276.533447265625	-359.3629760742188	1007.564086914063	-1272.433471679688	-386.8940734863282	1005.728759765625	-1194.762939453125	-336.1916809082032	761.7531127929689	-1246.205078125	-378.2433776855469	768.6693115234377	-1296.941040039063	-347.8984985351563	673.6605224609376	-1256.94775390625	-236.814193725586	1315.857421875	-871.1801757812502	-306.8526306152344	1127.86279296875	-795.863464355469	-269.5621337890626	1095.895263671875	-799.1988525390627	-317.5790710449219	1058.332275390625	-794.132019042969	-319.6116027832032	998.0481567382815	-795.3218994140627	-325.5050659179688	985.4265747070315	-875.972351074219	-310.4277648925782	753.7897949218751	-784.362731933594	-364.7496948242188	774.6998291015627	-751.2335815429689	-328.5701293945313	679.9981079101564	-749.8207397460939	-257.4281005859376	879.3340454101565	-917.4443969726565	-410.9050292968751	983.3193359375002	-1015.971252441406	-428.1688537597657	957.6716308593752	-1043.630981445313	-423.7740783691407	955.814636230469	-986.727722167969	-331.4646911621094	736.1592407226564	-1195.942626953125	-283.2619628906251	667.1564941406251	-1191.039428710938	-234.9324035644532	681.4382324218751	-1182.481689453125	-295.4336242675782	609.8778686523439	-1174.358764648438	-246.243148803711	460.1838989257814	-1143.11669921875	-216.2474365234376	470.409393310547	-1030.290405273438	-241.4572143554688	324.4770812988282	-1049.765991210938	-278.1598205566407	266.6318359375001	-1106.236206054688	-249.9101715087891	269.8373413085938	-1068.069213867188	-289.3782348632813	210.230697631836	-1023.43212890625	-382.0093688964844	106.0634155273438	-1057.7041015625	-350.2000427246094	121.773796081543	-979.3887329101565	-441.8700256347657	97.15998077392581	-1007.516235351563	-240.8114624023438	52.09643173217775	-993.0866699218752	-235.7056274414063	49.34405899047853	-1032.04443359375	-260.2111206054688	43.4464340209961	-1081.47119140625	-327.4785156250001	643.9785156250001	-831.2264404296877	-285.1554260253907	590.1800537109376	-829.303161621094	-252.1878967285157	592.8591918945314	-839.2078857421877	-310.8422851562501	510.8944396972657	-837.8484497070315	-314.9422912597657	465.9470214843751	-843.325134277344	-301.9939270019532	449.4355773925782	-956.249694824219	-410.0826110839845	377.4432067871094	-872.5249023437502	-507.4526672363282	424.5925292968751	-859.1546630859377	-497.1313781738282	379.0229492187501	-868.154479980469	-533.7548828125001	355.7561035156251	-907.9239501953127	-683.9871826171876	377.7567138671876	-892.4667968750002	-654.7748413085939	363.6971130371094	-972.2036743164065	-709.8276977539064	433.5638732910157	-937.4744873046877	-696.0736083984376	232.9524383544922	-978.432800292969	-699.2538452148439	221.346664428711	-933.7967529296877	-730.3460083007814	241.8064270019532	-883.4562988281252	-266.4627990722657	883.523864746094	-1131.506469726563	
